<?xml version="1.0" encoding="utf-8" standalone="no"?>
<!DOCTYPE svg PUBLIC "-//W3C//DTD SVG 1.1//EN"
  "http://www.w3.org/Graphics/SVG/1.1/DTD/svg11.dtd">
<svg xmlns:xlink="http://www.w3.org/1999/xlink" width="720pt" height="432pt" viewBox="0 0 720 432" xmlns="http://www.w3.org/2000/svg" version="1.1">
 <metadata>
  <rdf:RDF xmlns:dc="http://purl.org/dc/elements/1.1/" xmlns:cc="http://creativecommons.org/ns#" xmlns:rdf="http://www.w3.org/1999/02/22-rdf-syntax-ns#">
   <cc:Work>
    <dc:type rdf:resource="http://purl.org/dc/dcmitype/StillImage"/>
    <dc:date>2024-02-12T00:19:40.885917</dc:date>
    <dc:format>image/svg+xml</dc:format>
    <dc:creator>
     <cc:Agent>
      <dc:title>Matplotlib v3.7.4, https://matplotlib.org/</dc:title>
     </cc:Agent>
    </dc:creator>
   </cc:Work>
  </rdf:RDF>
 </metadata>
 <defs>
  <style type="text/css">*{stroke-linejoin: round; stroke-linecap: butt}</style>
 </defs>
 <g id="figure_1">
  <g id="patch_1">
   <path d="M 0 432 
L 720 432 
L 720 0 
L 0 0 
z
" style="fill: #ffffff"/>
  </g>
  <g id="axes_1">
   <g id="patch_2">
    <path d="M 90 384.48 
L 648 384.48 
L 648 51.84 
L 90 51.84 
z
" style="fill: #ffffff"/>
   </g>
   <g id="matplotlib.axis_1">
    <g id="xtick_1">
     <g id="line2d_1">
      <path d="M 102.785285 384.48 
L 102.785285 51.84 
" clip-path="url(#p0d8d4871ff)" style="fill: none; stroke: #808080; stroke-opacity: 0.75; stroke-width: 0.25; stroke-linecap: round"/>
     </g>
     <g id="line2d_2"/>
     <g id="text_1">
      <!-- 0 -->
      <g style="fill: #262626" transform="translate(98.892629 398.125625) scale(0.14 -0.14)">
       <defs>
        <path id="LiberationSans-30" d="M 3309 2203 
Q 3309 1100 2920 518 
Q 2531 -63 1772 -63 
Q 1013 -63 631 515 
Q 250 1094 250 2203 
Q 250 3338 620 3903 
Q 991 4469 1791 4469 
Q 2569 4469 2939 3897 
Q 3309 3325 3309 2203 
z
M 2738 2203 
Q 2738 3156 2517 3584 
Q 2297 4013 1791 4013 
Q 1272 4013 1045 3591 
Q 819 3169 819 2203 
Q 819 1266 1048 831 
Q 1278 397 1778 397 
Q 2275 397 2506 840 
Q 2738 1284 2738 2203 
z
" transform="scale(0.015625)"/>
       </defs>
       <use xlink:href="#LiberationSans-30"/>
      </g>
     </g>
    </g>
    <g id="xtick_2">
     <g id="line2d_3">
      <path d="M 130.046021 384.48 
L 130.046021 51.84 
" clip-path="url(#p0d8d4871ff)" style="fill: none; stroke: #808080; stroke-opacity: 0.75; stroke-width: 0.25; stroke-linecap: round"/>
     </g>
     <g id="line2d_4"/>
     <g id="text_2">
      <!-- 1 -->
      <g style="fill: #262626" transform="translate(126.153365 398.125625) scale(0.14 -0.14)">
       <defs>
        <path id="LiberationSans-31" d="M 488 0 
L 488 478 
L 1609 478 
L 1609 3866 
L 616 3156 
L 616 3688 
L 1656 4403 
L 2175 4403 
L 2175 478 
L 3247 478 
L 3247 0 
L 488 0 
z
" transform="scale(0.015625)"/>
       </defs>
       <use xlink:href="#LiberationSans-31"/>
      </g>
     </g>
    </g>
    <g id="xtick_3">
     <g id="line2d_5">
      <path d="M 157.306757 384.48 
L 157.306757 51.84 
" clip-path="url(#p0d8d4871ff)" style="fill: none; stroke: #808080; stroke-opacity: 0.75; stroke-width: 0.25; stroke-linecap: round"/>
     </g>
     <g id="line2d_6"/>
     <g id="text_3">
      <!-- 2 -->
      <g style="fill: #262626" transform="translate(153.4141 398.125625) scale(0.14 -0.14)">
       <defs>
        <path id="LiberationSans-32" d="M 322 0 
L 322 397 
Q 481 763 711 1042 
Q 941 1322 1194 1548 
Q 1447 1775 1695 1969 
Q 1944 2163 2144 2356 
Q 2344 2550 2467 2762 
Q 2591 2975 2591 3244 
Q 2591 3606 2378 3806 
Q 2166 4006 1788 4006 
Q 1428 4006 1195 3811 
Q 963 3616 922 3263 
L 347 3316 
Q 409 3844 795 4156 
Q 1181 4469 1788 4469 
Q 2453 4469 2811 4155 
Q 3169 3841 3169 3263 
Q 3169 3006 3051 2753 
Q 2934 2500 2703 2247 
Q 2472 1994 1819 1463 
Q 1459 1169 1246 933 
Q 1034 697 941 478 
L 3238 478 
L 3238 0 
L 322 0 
z
" transform="scale(0.015625)"/>
       </defs>
       <use xlink:href="#LiberationSans-32"/>
      </g>
     </g>
    </g>
    <g id="xtick_4">
     <g id="line2d_7">
      <path d="M 184.567492 384.48 
L 184.567492 51.84 
" clip-path="url(#p0d8d4871ff)" style="fill: none; stroke: #808080; stroke-opacity: 0.75; stroke-width: 0.25; stroke-linecap: round"/>
     </g>
     <g id="line2d_8"/>
     <g id="text_4">
      <!-- 3 -->
      <g style="fill: #262626" transform="translate(180.674836 398.125625) scale(0.14 -0.14)">
       <defs>
        <path id="LiberationSans-33" d="M 3278 1216 
Q 3278 606 2890 271 
Q 2503 -63 1784 -63 
Q 1116 -63 717 239 
Q 319 541 244 1131 
L 825 1184 
Q 938 403 1784 403 
Q 2209 403 2451 612 
Q 2694 822 2694 1234 
Q 2694 1594 2417 1795 
Q 2141 1997 1619 1997 
L 1300 1997 
L 1300 2484 
L 1606 2484 
Q 2069 2484 2323 2686 
Q 2578 2888 2578 3244 
Q 2578 3597 2370 3801 
Q 2163 4006 1753 4006 
Q 1381 4006 1151 3815 
Q 922 3625 884 3278 
L 319 3322 
Q 381 3863 767 4166 
Q 1153 4469 1759 4469 
Q 2422 4469 2789 4161 
Q 3156 3853 3156 3303 
Q 3156 2881 2920 2617 
Q 2684 2353 2234 2259 
L 2234 2247 
Q 2728 2194 3003 1916 
Q 3278 1638 3278 1216 
z
" transform="scale(0.015625)"/>
       </defs>
       <use xlink:href="#LiberationSans-33"/>
      </g>
     </g>
    </g>
    <g id="xtick_5">
     <g id="line2d_9">
      <path d="M 211.828228 384.48 
L 211.828228 51.84 
" clip-path="url(#p0d8d4871ff)" style="fill: none; stroke: #808080; stroke-opacity: 0.75; stroke-width: 0.25; stroke-linecap: round"/>
     </g>
     <g id="line2d_10"/>
     <g id="text_5">
      <!-- 4 -->
      <g style="fill: #262626" transform="translate(207.935572 398.125625) scale(0.14 -0.14)">
       <defs>
        <path id="LiberationSans-34" d="M 2753 997 
L 2753 0 
L 2222 0 
L 2222 997 
L 147 997 
L 147 1434 
L 2163 4403 
L 2753 4403 
L 2753 1441 
L 3372 1441 
L 3372 997 
L 2753 997 
z
M 2222 3769 
Q 2216 3750 2134 3603 
Q 2053 3456 2013 3397 
L 884 1734 
L 716 1503 
L 666 1441 
L 2222 1441 
L 2222 3769 
z
" transform="scale(0.015625)"/>
       </defs>
       <use xlink:href="#LiberationSans-34"/>
      </g>
     </g>
    </g>
    <g id="xtick_6">
     <g id="line2d_11">
      <path d="M 239.088964 384.48 
L 239.088964 51.84 
" clip-path="url(#p0d8d4871ff)" style="fill: none; stroke: #808080; stroke-opacity: 0.75; stroke-width: 0.25; stroke-linecap: round"/>
     </g>
     <g id="line2d_12"/>
     <g id="text_6">
      <!-- 5 -->
      <g style="fill: #262626" transform="translate(235.196308 398.125625) scale(0.14 -0.14)">
       <defs>
        <path id="LiberationSans-35" d="M 3291 1434 
Q 3291 738 2877 337 
Q 2463 -63 1728 -63 
Q 1113 -63 734 206 
Q 356 475 256 984 
L 825 1050 
Q 1003 397 1741 397 
Q 2194 397 2450 670 
Q 2706 944 2706 1422 
Q 2706 1838 2448 2094 
Q 2191 2350 1753 2350 
Q 1525 2350 1328 2278 
Q 1131 2206 934 2034 
L 384 2034 
L 531 4403 
L 3034 4403 
L 3034 3925 
L 1044 3925 
L 959 2528 
Q 1325 2809 1869 2809 
Q 2519 2809 2905 2428 
Q 3291 2047 3291 1434 
z
" transform="scale(0.015625)"/>
       </defs>
       <use xlink:href="#LiberationSans-35"/>
      </g>
     </g>
    </g>
    <g id="xtick_7">
     <g id="line2d_13">
      <path d="M 266.3497 384.48 
L 266.3497 51.84 
" clip-path="url(#p0d8d4871ff)" style="fill: none; stroke: #808080; stroke-opacity: 0.75; stroke-width: 0.25; stroke-linecap: round"/>
     </g>
     <g id="line2d_14"/>
     <g id="text_7">
      <!-- 6 -->
      <g style="fill: #262626" transform="translate(262.457043 398.125625) scale(0.14 -0.14)">
       <defs>
        <path id="LiberationSans-36" d="M 3278 1441 
Q 3278 744 2900 340 
Q 2522 -63 1856 -63 
Q 1113 -63 719 490 
Q 325 1044 325 2100 
Q 325 3244 734 3856 
Q 1144 4469 1900 4469 
Q 2897 4469 3156 3572 
L 2619 3475 
Q 2453 4013 1894 4013 
Q 1413 4013 1148 3564 
Q 884 3116 884 2266 
Q 1038 2550 1316 2698 
Q 1594 2847 1953 2847 
Q 2563 2847 2920 2465 
Q 3278 2084 3278 1441 
z
M 2706 1416 
Q 2706 1894 2472 2153 
Q 2238 2413 1819 2413 
Q 1425 2413 1183 2183 
Q 941 1953 941 1550 
Q 941 1041 1192 716 
Q 1444 391 1838 391 
Q 2244 391 2475 664 
Q 2706 938 2706 1416 
z
" transform="scale(0.015625)"/>
       </defs>
       <use xlink:href="#LiberationSans-36"/>
      </g>
     </g>
    </g>
    <g id="xtick_8">
     <g id="line2d_15">
      <path d="M 293.610435 384.48 
L 293.610435 51.84 
" clip-path="url(#p0d8d4871ff)" style="fill: none; stroke: #808080; stroke-opacity: 0.75; stroke-width: 0.25; stroke-linecap: round"/>
     </g>
     <g id="line2d_16"/>
     <g id="text_8">
      <!-- 7 -->
      <g style="fill: #262626" transform="translate(289.717779 398.125625) scale(0.14 -0.14)">
       <defs>
        <path id="LiberationSans-37" d="M 3238 3947 
Q 2563 2916 2284 2331 
Q 2006 1747 1867 1178 
Q 1728 609 1728 0 
L 1141 0 
Q 1141 844 1498 1776 
Q 1856 2709 2694 3925 
L 328 3925 
L 328 4403 
L 3238 4403 
L 3238 3947 
z
" transform="scale(0.015625)"/>
       </defs>
       <use xlink:href="#LiberationSans-37"/>
      </g>
     </g>
    </g>
    <g id="xtick_9">
     <g id="line2d_17">
      <path d="M 320.871171 384.48 
L 320.871171 51.84 
" clip-path="url(#p0d8d4871ff)" style="fill: none; stroke: #808080; stroke-opacity: 0.75; stroke-width: 0.25; stroke-linecap: round"/>
     </g>
     <g id="line2d_18"/>
     <g id="text_9">
      <!-- 8 -->
      <g style="fill: #262626" transform="translate(316.978515 398.125625) scale(0.14 -0.14)">
       <defs>
        <path id="LiberationSans-38" d="M 3281 1228 
Q 3281 619 2893 278 
Q 2506 -63 1781 -63 
Q 1075 -63 676 271 
Q 278 606 278 1222 
Q 278 1653 525 1947 
Q 772 2241 1156 2303 
L 1156 2316 
Q 797 2400 589 2681 
Q 381 2963 381 3341 
Q 381 3844 757 4156 
Q 1134 4469 1769 4469 
Q 2419 4469 2795 4162 
Q 3172 3856 3172 3334 
Q 3172 2956 2962 2675 
Q 2753 2394 2391 2322 
L 2391 2309 
Q 2813 2241 3047 1952 
Q 3281 1663 3281 1228 
z
M 2588 3303 
Q 2588 4050 1769 4050 
Q 1372 4050 1164 3862 
Q 956 3675 956 3303 
Q 956 2925 1170 2726 
Q 1384 2528 1775 2528 
Q 2172 2528 2380 2711 
Q 2588 2894 2588 3303 
z
M 2697 1281 
Q 2697 1691 2453 1898 
Q 2209 2106 1769 2106 
Q 1341 2106 1100 1882 
Q 859 1659 859 1269 
Q 859 359 1788 359 
Q 2247 359 2472 579 
Q 2697 800 2697 1281 
z
" transform="scale(0.015625)"/>
       </defs>
       <use xlink:href="#LiberationSans-38"/>
      </g>
     </g>
    </g>
    <g id="xtick_10">
     <g id="line2d_19">
      <path d="M 348.131907 384.48 
L 348.131907 51.84 
" clip-path="url(#p0d8d4871ff)" style="fill: none; stroke: #808080; stroke-opacity: 0.75; stroke-width: 0.25; stroke-linecap: round"/>
     </g>
     <g id="line2d_20"/>
     <g id="text_10">
      <!-- 9 -->
      <g style="fill: #262626" transform="translate(344.239251 398.125625) scale(0.14 -0.14)">
       <defs>
        <path id="LiberationSans-39" d="M 3256 2291 
Q 3256 1156 2842 546 
Q 2428 -63 1663 -63 
Q 1147 -63 836 154 
Q 525 372 391 856 
L 928 941 
Q 1097 391 1672 391 
Q 2156 391 2422 841 
Q 2688 1291 2700 2125 
Q 2575 1844 2272 1673 
Q 1969 1503 1606 1503 
Q 1013 1503 656 1909 
Q 300 2316 300 2988 
Q 300 3678 687 4073 
Q 1075 4469 1766 4469 
Q 2500 4469 2878 3925 
Q 3256 3381 3256 2291 
z
M 2644 2834 
Q 2644 3366 2400 3689 
Q 2156 4013 1747 4013 
Q 1341 4013 1106 3736 
Q 872 3459 872 2988 
Q 872 2506 1106 2226 
Q 1341 1947 1741 1947 
Q 1984 1947 2193 2058 
Q 2403 2169 2523 2372 
Q 2644 2575 2644 2834 
z
" transform="scale(0.015625)"/>
       </defs>
       <use xlink:href="#LiberationSans-39"/>
      </g>
     </g>
    </g>
    <g id="xtick_11">
     <g id="line2d_21">
      <path d="M 375.392643 384.48 
L 375.392643 51.84 
" clip-path="url(#p0d8d4871ff)" style="fill: none; stroke: #808080; stroke-opacity: 0.75; stroke-width: 0.25; stroke-linecap: round"/>
     </g>
     <g id="line2d_22"/>
     <g id="text_11">
      <!-- 10 -->
      <g style="fill: #262626" transform="translate(367.60733 398.125625) scale(0.14 -0.14)">
       <use xlink:href="#LiberationSans-31"/>
       <use xlink:href="#LiberationSans-30" x="55.615234"/>
      </g>
     </g>
    </g>
    <g id="xtick_12">
     <g id="line2d_23">
      <path d="M 402.653378 384.48 
L 402.653378 51.84 
" clip-path="url(#p0d8d4871ff)" style="fill: none; stroke: #808080; stroke-opacity: 0.75; stroke-width: 0.25; stroke-linecap: round"/>
     </g>
     <g id="line2d_24"/>
     <g id="text_12">
      <!-- 11 -->
      <g style="fill: #262626" transform="translate(395.384316 398.125625) scale(0.14 -0.14)">
       <use xlink:href="#LiberationSans-31"/>
       <use xlink:href="#LiberationSans-31" x="48.240234"/>
      </g>
     </g>
    </g>
    <g id="xtick_13">
     <g id="line2d_25">
      <path d="M 429.914114 384.48 
L 429.914114 51.84 
" clip-path="url(#p0d8d4871ff)" style="fill: none; stroke: #808080; stroke-opacity: 0.75; stroke-width: 0.25; stroke-linecap: round"/>
     </g>
     <g id="line2d_26"/>
     <g id="text_13">
      <!-- 12 -->
      <g style="fill: #262626" transform="translate(422.128802 398.125625) scale(0.14 -0.14)">
       <use xlink:href="#LiberationSans-31"/>
       <use xlink:href="#LiberationSans-32" x="55.615234"/>
      </g>
     </g>
    </g>
    <g id="xtick_14">
     <g id="line2d_27">
      <path d="M 457.17485 384.48 
L 457.17485 51.84 
" clip-path="url(#p0d8d4871ff)" style="fill: none; stroke: #808080; stroke-opacity: 0.75; stroke-width: 0.25; stroke-linecap: round"/>
     </g>
     <g id="line2d_28"/>
     <g id="text_14">
      <!-- 13 -->
      <g style="fill: #262626" transform="translate(449.389537 398.125625) scale(0.14 -0.14)">
       <use xlink:href="#LiberationSans-31"/>
       <use xlink:href="#LiberationSans-33" x="55.615234"/>
      </g>
     </g>
    </g>
    <g id="xtick_15">
     <g id="line2d_29">
      <path d="M 484.435586 384.48 
L 484.435586 51.84 
" clip-path="url(#p0d8d4871ff)" style="fill: none; stroke: #808080; stroke-opacity: 0.75; stroke-width: 0.25; stroke-linecap: round"/>
     </g>
     <g id="line2d_30"/>
     <g id="text_15">
      <!-- 14 -->
      <g style="fill: #262626" transform="translate(476.650273 398.125625) scale(0.14 -0.14)">
       <use xlink:href="#LiberationSans-31"/>
       <use xlink:href="#LiberationSans-34" x="55.615234"/>
      </g>
     </g>
    </g>
    <g id="xtick_16">
     <g id="line2d_31">
      <path d="M 511.696321 384.48 
L 511.696321 51.84 
" clip-path="url(#p0d8d4871ff)" style="fill: none; stroke: #808080; stroke-opacity: 0.75; stroke-width: 0.25; stroke-linecap: round"/>
     </g>
     <g id="line2d_32"/>
     <g id="text_16">
      <!-- 15 -->
      <g style="fill: #262626" transform="translate(503.911009 398.125625) scale(0.14 -0.14)">
       <use xlink:href="#LiberationSans-31"/>
       <use xlink:href="#LiberationSans-35" x="55.615234"/>
      </g>
     </g>
    </g>
    <g id="xtick_17">
     <g id="line2d_33">
      <path d="M 538.957057 384.48 
L 538.957057 51.84 
" clip-path="url(#p0d8d4871ff)" style="fill: none; stroke: #808080; stroke-opacity: 0.75; stroke-width: 0.25; stroke-linecap: round"/>
     </g>
     <g id="line2d_34"/>
     <g id="text_17">
      <!-- 16 -->
      <g style="fill: #262626" transform="translate(531.171745 398.125625) scale(0.14 -0.14)">
       <use xlink:href="#LiberationSans-31"/>
       <use xlink:href="#LiberationSans-36" x="55.615234"/>
      </g>
     </g>
    </g>
    <g id="xtick_18">
     <g id="line2d_35">
      <path d="M 566.217793 384.48 
L 566.217793 51.84 
" clip-path="url(#p0d8d4871ff)" style="fill: none; stroke: #808080; stroke-opacity: 0.75; stroke-width: 0.25; stroke-linecap: round"/>
     </g>
     <g id="line2d_36"/>
     <g id="text_18">
      <!-- 17 -->
      <g style="fill: #262626" transform="translate(558.43248 398.125625) scale(0.14 -0.14)">
       <use xlink:href="#LiberationSans-31"/>
       <use xlink:href="#LiberationSans-37" x="55.615234"/>
      </g>
     </g>
    </g>
    <g id="xtick_19">
     <g id="line2d_37">
      <path d="M 593.478529 384.48 
L 593.478529 51.84 
" clip-path="url(#p0d8d4871ff)" style="fill: none; stroke: #808080; stroke-opacity: 0.75; stroke-width: 0.25; stroke-linecap: round"/>
     </g>
     <g id="line2d_38"/>
     <g id="text_19">
      <!-- 18 -->
      <g style="fill: #262626" transform="translate(585.693216 398.125625) scale(0.14 -0.14)">
       <use xlink:href="#LiberationSans-31"/>
       <use xlink:href="#LiberationSans-38" x="55.615234"/>
      </g>
     </g>
    </g>
    <g id="xtick_20">
     <g id="line2d_39">
      <path d="M 620.739264 384.48 
L 620.739264 51.84 
" clip-path="url(#p0d8d4871ff)" style="fill: none; stroke: #808080; stroke-opacity: 0.75; stroke-width: 0.25; stroke-linecap: round"/>
     </g>
     <g id="line2d_40"/>
     <g id="text_20">
      <!-- 19 -->
      <g style="fill: #262626" transform="translate(612.953952 398.125625) scale(0.14 -0.14)">
       <use xlink:href="#LiberationSans-31"/>
       <use xlink:href="#LiberationSans-39" x="55.615234"/>
      </g>
     </g>
    </g>
    <g id="xtick_21">
     <g id="line2d_41">
      <path d="M 648 384.48 
L 648 51.84 
" clip-path="url(#p0d8d4871ff)" style="fill: none; stroke: #808080; stroke-opacity: 0.75; stroke-width: 0.25; stroke-linecap: round"/>
     </g>
     <g id="line2d_42"/>
     <g id="text_21">
      <!-- 20 -->
      <g style="fill: #262626" transform="translate(640.214687 398.125625) scale(0.14 -0.14)">
       <use xlink:href="#LiberationSans-32"/>
       <use xlink:href="#LiberationSans-30" x="55.615234"/>
      </g>
     </g>
    </g>
    <g id="text_22">
     <!-- Epochs -->
     <g style="fill: #262626" transform="translate(342.3175 420.625625) scale(0.16 -0.16)">
      <defs>
       <path id="LiberationSans-45" d="M 525 0 
L 525 4403 
L 3866 4403 
L 3866 3916 
L 1122 3916 
L 1122 2503 
L 3678 2503 
L 3678 2022 
L 1122 2022 
L 1122 488 
L 3994 488 
L 3994 0 
L 525 0 
z
" transform="scale(0.015625)"/>
       <path id="LiberationSans-70" d="M 3291 1706 
Q 3291 -63 2047 -63 
Q 1266 -63 997 525 
L 981 525 
Q 994 500 994 -6 
L 994 -1328 
L 431 -1328 
L 431 2691 
Q 431 3213 413 3381 
L 956 3381 
Q 959 3369 965 3292 
Q 972 3216 980 3056 
Q 988 2897 988 2838 
L 1000 2838 
Q 1150 3150 1397 3295 
Q 1644 3441 2047 3441 
Q 2672 3441 2981 3022 
Q 3291 2603 3291 1706 
z
M 2700 1694 
Q 2700 2400 2509 2703 
Q 2319 3006 1903 3006 
Q 1569 3006 1380 2865 
Q 1191 2725 1092 2426 
Q 994 2128 994 1650 
Q 994 984 1206 668 
Q 1419 353 1897 353 
Q 2316 353 2508 661 
Q 2700 969 2700 1694 
z
" transform="scale(0.015625)"/>
       <path id="LiberationSans-6f" d="M 3291 1694 
Q 3291 806 2900 371 
Q 2509 -63 1766 -63 
Q 1025 -63 647 389 
Q 269 841 269 1694 
Q 269 3444 1784 3444 
Q 2559 3444 2925 3017 
Q 3291 2591 3291 1694 
z
M 2700 1694 
Q 2700 2394 2492 2711 
Q 2284 3028 1794 3028 
Q 1300 3028 1079 2704 
Q 859 2381 859 1694 
Q 859 1025 1076 689 
Q 1294 353 1759 353 
Q 2266 353 2483 678 
Q 2700 1003 2700 1694 
z
" transform="scale(0.015625)"/>
       <path id="LiberationSans-63" d="M 859 1706 
Q 859 1031 1071 706 
Q 1284 381 1713 381 
Q 2013 381 2214 543 
Q 2416 706 2463 1044 
L 3031 1006 
Q 2966 519 2616 228 
Q 2266 -63 1728 -63 
Q 1019 -63 645 385 
Q 272 834 272 1694 
Q 272 2547 647 2995 
Q 1022 3444 1722 3444 
Q 2241 3444 2583 3175 
Q 2925 2906 3013 2434 
L 2434 2391 
Q 2391 2672 2212 2837 
Q 2034 3003 1706 3003 
Q 1259 3003 1059 2706 
Q 859 2409 859 1706 
z
" transform="scale(0.015625)"/>
       <path id="LiberationSans-68" d="M 991 2803 
Q 1172 3134 1426 3289 
Q 1681 3444 2072 3444 
Q 2622 3444 2883 3170 
Q 3144 2897 3144 2253 
L 3144 0 
L 2578 0 
L 2578 2144 
Q 2578 2500 2512 2673 
Q 2447 2847 2297 2928 
Q 2147 3009 1881 3009 
Q 1484 3009 1245 2734 
Q 1006 2459 1006 1994 
L 1006 0 
L 444 0 
L 444 4638 
L 1006 4638 
L 1006 3431 
Q 1006 3241 995 3037 
Q 984 2834 981 2803 
L 991 2803 
z
" transform="scale(0.015625)"/>
       <path id="LiberationSans-73" d="M 2969 934 
Q 2969 456 2608 196 
Q 2247 -63 1597 -63 
Q 966 -63 623 145 
Q 281 353 178 794 
L 675 891 
Q 747 619 972 492 
Q 1197 366 1597 366 
Q 2025 366 2223 497 
Q 2422 628 2422 891 
Q 2422 1091 2284 1216 
Q 2147 1341 1841 1422 
L 1438 1528 
Q 953 1653 748 1773 
Q 544 1894 428 2066 
Q 313 2238 313 2488 
Q 313 2950 642 3192 
Q 972 3434 1603 3434 
Q 2163 3434 2492 3237 
Q 2822 3041 2909 2606 
L 2403 2544 
Q 2356 2769 2151 2889 
Q 1947 3009 1603 3009 
Q 1222 3009 1040 2893 
Q 859 2778 859 2544 
Q 859 2400 934 2306 
Q 1009 2213 1156 2147 
Q 1303 2081 1775 1966 
Q 2222 1853 2419 1758 
Q 2616 1663 2730 1547 
Q 2844 1431 2906 1279 
Q 2969 1128 2969 934 
z
" transform="scale(0.015625)"/>
      </defs>
      <use xlink:href="#LiberationSans-45"/>
      <use xlink:href="#LiberationSans-70" x="66.699219"/>
      <use xlink:href="#LiberationSans-6f" x="122.314453"/>
      <use xlink:href="#LiberationSans-63" x="177.929688"/>
      <use xlink:href="#LiberationSans-68" x="227.929688"/>
      <use xlink:href="#LiberationSans-73" x="283.544922"/>
     </g>
    </g>
   </g>
   <g id="matplotlib.axis_2">
    <g id="ytick_1">
     <g id="line2d_43">
      <path d="M 90 369.418919 
L 648 369.418919 
" clip-path="url(#p0d8d4871ff)" style="fill: none; stroke: #808080; stroke-opacity: 0.75; stroke-width: 0.25; stroke-linecap: round"/>
     </g>
     <g id="line2d_44"/>
     <g id="text_23">
      <!-- 0.00 -->
      <g style="fill: #262626" transform="translate(59.254687 374.491731) scale(0.14 -0.14)">
       <defs>
        <path id="LiberationSans-2e" d="M 584 0 
L 584 684 
L 1194 684 
L 1194 0 
L 584 0 
z
" transform="scale(0.015625)"/>
       </defs>
       <use xlink:href="#LiberationSans-30"/>
       <use xlink:href="#LiberationSans-2e" x="55.615234"/>
       <use xlink:href="#LiberationSans-30" x="83.398438"/>
       <use xlink:href="#LiberationSans-30" x="139.013672"/>
      </g>
     </g>
    </g>
    <g id="ytick_2">
     <g id="line2d_45">
      <path d="M 90 308.927135 
L 648 308.927135 
" clip-path="url(#p0d8d4871ff)" style="fill: none; stroke: #808080; stroke-opacity: 0.75; stroke-width: 0.25; stroke-linecap: round"/>
     </g>
     <g id="line2d_46"/>
     <g id="text_24">
      <!-- 1.00 -->
      <g style="fill: #262626" transform="translate(59.254687 313.999948) scale(0.14 -0.14)">
       <use xlink:href="#LiberationSans-31"/>
       <use xlink:href="#LiberationSans-2e" x="55.615234"/>
       <use xlink:href="#LiberationSans-30" x="83.398438"/>
       <use xlink:href="#LiberationSans-30" x="139.013672"/>
      </g>
     </g>
    </g>
    <g id="ytick_3">
     <g id="line2d_47">
      <path d="M 90 248.435351 
L 648 248.435351 
" clip-path="url(#p0d8d4871ff)" style="fill: none; stroke: #808080; stroke-opacity: 0.75; stroke-width: 0.25; stroke-linecap: round"/>
     </g>
     <g id="line2d_48"/>
     <g id="text_25">
      <!-- 2.00 -->
      <g style="fill: #262626" transform="translate(59.254687 253.508164) scale(0.14 -0.14)">
       <use xlink:href="#LiberationSans-32"/>
       <use xlink:href="#LiberationSans-2e" x="55.615234"/>
       <use xlink:href="#LiberationSans-30" x="83.398438"/>
       <use xlink:href="#LiberationSans-30" x="139.013672"/>
      </g>
     </g>
    </g>
    <g id="ytick_4">
     <g id="line2d_49">
      <path d="M 90 187.943568 
L 648 187.943568 
" clip-path="url(#p0d8d4871ff)" style="fill: none; stroke: #808080; stroke-opacity: 0.75; stroke-width: 0.25; stroke-linecap: round"/>
     </g>
     <g id="line2d_50"/>
     <g id="text_26">
      <!-- 3.00 -->
      <g style="fill: #262626" transform="translate(59.254687 193.01638) scale(0.14 -0.14)">
       <use xlink:href="#LiberationSans-33"/>
       <use xlink:href="#LiberationSans-2e" x="55.615234"/>
       <use xlink:href="#LiberationSans-30" x="83.398438"/>
       <use xlink:href="#LiberationSans-30" x="139.013672"/>
      </g>
     </g>
    </g>
    <g id="ytick_5">
     <g id="line2d_51">
      <path d="M 90 127.451784 
L 648 127.451784 
" clip-path="url(#p0d8d4871ff)" style="fill: none; stroke: #808080; stroke-opacity: 0.75; stroke-width: 0.25; stroke-linecap: round"/>
     </g>
     <g id="line2d_52"/>
     <g id="text_27">
      <!-- 4.00 -->
      <g style="fill: #262626" transform="translate(59.254687 132.524596) scale(0.14 -0.14)">
       <use xlink:href="#LiberationSans-34"/>
       <use xlink:href="#LiberationSans-2e" x="55.615234"/>
       <use xlink:href="#LiberationSans-30" x="83.398438"/>
       <use xlink:href="#LiberationSans-30" x="139.013672"/>
      </g>
     </g>
    </g>
    <g id="ytick_6">
     <g id="line2d_53">
      <path d="M 90 66.96 
L 648 66.96 
" clip-path="url(#p0d8d4871ff)" style="fill: none; stroke: #808080; stroke-opacity: 0.75; stroke-width: 0.25; stroke-linecap: round"/>
     </g>
     <g id="line2d_54"/>
     <g id="text_28">
      <!-- 5.00 -->
      <g style="fill: #262626" transform="translate(59.254687 72.032812) scale(0.14 -0.14)">
       <use xlink:href="#LiberationSans-35"/>
       <use xlink:href="#LiberationSans-2e" x="55.615234"/>
       <use xlink:href="#LiberationSans-30" x="83.398438"/>
       <use xlink:href="#LiberationSans-30" x="139.013672"/>
      </g>
     </g>
    </g>
    <g id="text_29">
     <!-- Learning Rate in $10^{-4}$ -->
     <g style="fill: #262626" transform="translate(47.894687 297.84) rotate(-90) scale(0.16 -0.16)">
      <defs>
       <path id="LiberationSans-4c" d="M 525 0 
L 525 4403 
L 1122 4403 
L 1122 488 
L 3347 488 
L 3347 0 
L 525 0 
z
" transform="scale(0.015625)"/>
       <path id="LiberationSans-65" d="M 863 1572 
Q 863 991 1103 675 
Q 1344 359 1806 359 
Q 2172 359 2392 506 
Q 2613 653 2691 878 
L 3184 738 
Q 2881 -63 1806 -63 
Q 1056 -63 664 384 
Q 272 831 272 1713 
Q 272 2550 664 2997 
Q 1056 3444 1784 3444 
Q 3275 3444 3275 1647 
L 3275 1572 
L 863 1572 
z
M 2694 2003 
Q 2647 2538 2422 2783 
Q 2197 3028 1775 3028 
Q 1366 3028 1127 2754 
Q 888 2481 869 2003 
L 2694 2003 
z
" transform="scale(0.015625)"/>
       <path id="LiberationSans-61" d="M 1294 -63 
Q 784 -63 528 206 
Q 272 475 272 944 
Q 272 1469 617 1750 
Q 963 2031 1731 2050 
L 2491 2063 
L 2491 2247 
Q 2491 2659 2316 2837 
Q 2141 3016 1766 3016 
Q 1388 3016 1216 2887 
Q 1044 2759 1009 2478 
L 422 2531 
Q 566 3444 1778 3444 
Q 2416 3444 2737 3151 
Q 3059 2859 3059 2306 
L 3059 850 
Q 3059 600 3125 473 
Q 3191 347 3375 347 
Q 3456 347 3559 369 
L 3559 19 
Q 3347 -31 3125 -31 
Q 2813 -31 2670 133 
Q 2528 297 2509 647 
L 2491 647 
Q 2275 259 1989 98 
Q 1703 -63 1294 -63 
z
M 1422 359 
Q 1731 359 1972 500 
Q 2213 641 2352 886 
Q 2491 1131 2491 1391 
L 2491 1669 
L 1875 1656 
Q 1478 1650 1273 1575 
Q 1069 1500 959 1344 
Q 850 1188 850 934 
Q 850 659 998 509 
Q 1147 359 1422 359 
z
" transform="scale(0.015625)"/>
       <path id="LiberationSans-72" d="M 444 0 
L 444 2594 
Q 444 2950 425 3381 
L 956 3381 
Q 981 2806 981 2691 
L 994 2691 
Q 1128 3125 1303 3284 
Q 1478 3444 1797 3444 
Q 1909 3444 2025 3413 
L 2025 2897 
Q 1913 2928 1725 2928 
Q 1375 2928 1190 2626 
Q 1006 2325 1006 1763 
L 1006 0 
L 444 0 
z
" transform="scale(0.015625)"/>
       <path id="LiberationSans-6e" d="M 2578 0 
L 2578 2144 
Q 2578 2478 2512 2662 
Q 2447 2847 2303 2928 
Q 2159 3009 1881 3009 
Q 1475 3009 1240 2731 
Q 1006 2453 1006 1959 
L 1006 0 
L 444 0 
L 444 2659 
Q 444 3250 425 3381 
L 956 3381 
Q 959 3366 962 3297 
Q 966 3228 970 3139 
Q 975 3050 981 2803 
L 991 2803 
Q 1184 3153 1439 3298 
Q 1694 3444 2072 3444 
Q 2628 3444 2886 3167 
Q 3144 2891 3144 2253 
L 3144 0 
L 2578 0 
z
" transform="scale(0.015625)"/>
       <path id="LiberationSans-69" d="M 428 4100 
L 428 4638 
L 991 4638 
L 991 4100 
L 428 4100 
z
M 428 0 
L 428 3381 
L 991 3381 
L 991 0 
L 428 0 
z
" transform="scale(0.015625)"/>
       <path id="LiberationSans-67" d="M 1713 -1328 
Q 1159 -1328 831 -1111 
Q 503 -894 409 -494 
L 975 -413 
Q 1031 -647 1223 -773 
Q 1416 -900 1728 -900 
Q 2569 -900 2569 84 
L 2569 628 
L 2563 628 
Q 2403 303 2125 139 
Q 1847 -25 1475 -25 
Q 853 -25 561 387 
Q 269 800 269 1684 
Q 269 2581 583 3007 
Q 897 3434 1538 3434 
Q 1897 3434 2161 3270 
Q 2425 3106 2569 2803 
L 2575 2803 
Q 2575 2897 2587 3128 
Q 2600 3359 2613 3381 
L 3147 3381 
Q 3128 3213 3128 2681 
L 3128 97 
Q 3128 -1328 1713 -1328 
z
M 2569 1691 
Q 2569 2103 2456 2401 
Q 2344 2700 2139 2858 
Q 1934 3016 1675 3016 
Q 1244 3016 1047 2703 
Q 850 2391 850 1691 
Q 850 997 1034 694 
Q 1219 391 1666 391 
Q 1931 391 2137 547 
Q 2344 703 2456 995 
Q 2569 1288 2569 1691 
z
" transform="scale(0.015625)"/>
       <path id="LiberationSans-20" transform="scale(0.015625)"/>
       <path id="LiberationSans-52" d="M 3638 0 
L 2494 1828 
L 1122 1828 
L 1122 0 
L 525 0 
L 525 4403 
L 2597 4403 
Q 3341 4403 3745 4070 
Q 4150 3738 4150 3144 
Q 4150 2653 3864 2318 
Q 3578 1984 3075 1897 
L 4325 0 
L 3638 0 
z
M 3550 3138 
Q 3550 3522 3289 3723 
Q 3028 3925 2538 3925 
L 1122 3925 
L 1122 2300 
L 2563 2300 
Q 3034 2300 3292 2520 
Q 3550 2741 3550 3138 
z
" transform="scale(0.015625)"/>
       <path id="LiberationSans-74" d="M 1731 25 
Q 1453 -50 1163 -50 
Q 488 -50 488 716 
L 488 2972 
L 97 2972 
L 97 3381 
L 509 3381 
L 675 4138 
L 1050 4138 
L 1050 3381 
L 1675 3381 
L 1675 2972 
L 1050 2972 
L 1050 838 
Q 1050 594 1129 495 
Q 1209 397 1406 397 
Q 1519 397 1731 441 
L 1731 25 
z
" transform="scale(0.015625)"/>
       <path id="DejaVuSans-31" d="M 794 531 
L 1825 531 
L 1825 4091 
L 703 3866 
L 703 4441 
L 1819 4666 
L 2450 4666 
L 2450 531 
L 3481 531 
L 3481 0 
L 794 0 
L 794 531 
z
" transform="scale(0.015625)"/>
       <path id="DejaVuSans-30" d="M 2034 4250 
Q 1547 4250 1301 3770 
Q 1056 3291 1056 2328 
Q 1056 1369 1301 889 
Q 1547 409 2034 409 
Q 2525 409 2770 889 
Q 3016 1369 3016 2328 
Q 3016 3291 2770 3770 
Q 2525 4250 2034 4250 
z
M 2034 4750 
Q 2819 4750 3233 4129 
Q 3647 3509 3647 2328 
Q 3647 1150 3233 529 
Q 2819 -91 2034 -91 
Q 1250 -91 836 529 
Q 422 1150 422 2328 
Q 422 3509 836 4129 
Q 1250 4750 2034 4750 
z
" transform="scale(0.015625)"/>
       <path id="DejaVuSans-2212" d="M 678 2272 
L 4684 2272 
L 4684 1741 
L 678 1741 
L 678 2272 
z
" transform="scale(0.015625)"/>
       <path id="DejaVuSans-34" d="M 2419 4116 
L 825 1625 
L 2419 1625 
L 2419 4116 
z
M 2253 4666 
L 3047 4666 
L 3047 1625 
L 3713 1625 
L 3713 1100 
L 3047 1100 
L 3047 0 
L 2419 0 
L 2419 1100 
L 313 1100 
L 313 1709 
L 2253 4666 
z
" transform="scale(0.015625)"/>
      </defs>
      <use xlink:href="#LiberationSans-4c" transform="translate(0 0.684375)"/>
      <use xlink:href="#LiberationSans-65" transform="translate(55.615234 0.684375)"/>
      <use xlink:href="#LiberationSans-61" transform="translate(111.230469 0.684375)"/>
      <use xlink:href="#LiberationSans-72" transform="translate(166.845703 0.684375)"/>
      <use xlink:href="#LiberationSans-6e" transform="translate(200.146484 0.684375)"/>
      <use xlink:href="#LiberationSans-69" transform="translate(255.761719 0.684375)"/>
      <use xlink:href="#LiberationSans-6e" transform="translate(277.978516 0.684375)"/>
      <use xlink:href="#LiberationSans-67" transform="translate(333.59375 0.684375)"/>
      <use xlink:href="#LiberationSans-20" transform="translate(389.208984 0.684375)"/>
      <use xlink:href="#LiberationSans-52" transform="translate(416.992188 0.684375)"/>
      <use xlink:href="#LiberationSans-61" transform="translate(489.208984 0.684375)"/>
      <use xlink:href="#LiberationSans-74" transform="translate(544.824219 0.684375)"/>
      <use xlink:href="#LiberationSans-65" transform="translate(572.607422 0.684375)"/>
      <use xlink:href="#LiberationSans-20" transform="translate(628.222656 0.684375)"/>
      <use xlink:href="#LiberationSans-69" transform="translate(656.005859 0.684375)"/>
      <use xlink:href="#LiberationSans-6e" transform="translate(678.222656 0.684375)"/>
      <use xlink:href="#LiberationSans-20" transform="translate(733.837891 0.684375)"/>
      <use xlink:href="#DejaVuSans-31" transform="translate(761.621094 0.684375)"/>
      <use xlink:href="#DejaVuSans-30" transform="translate(825.244141 0.684375)"/>
      <use xlink:href="#DejaVuSans-2212" transform="translate(889.824219 38.965625) scale(0.7)"/>
      <use xlink:href="#DejaVuSans-34" transform="translate(948.476562 38.965625) scale(0.7)"/>
     </g>
    </g>
   </g>
   <g id="line2d_55">
    <path d="M 106.056573 268.599078 
L 109.327862 167.779841 
L 112.59915 66.96 
L 115.870438 67.039244 
L 119.141727 67.278187 
L 122.413015 67.675618 
L 125.684303 68.230932 
L 128.955591 68.944131 
L 132.22688 69.814607 
L 135.498168 70.841153 
L 138.769456 72.022557 
L 142.040745 73.357611 
L 145.312033 74.845104 
L 148.583321 76.483222 
L 151.854609 78.270754 
L 155.125898 80.205281 
L 158.397186 82.284384 
L 161.668474 84.507457 
L 164.939763 86.870266 
L 168.211051 89.371601 
L 171.482339 92.008438 
L 174.753627 94.778357 
L 178.024916 97.677728 
L 181.296204 100.703527 
L 184.567492 103.853334 
L 187.838781 107.12352 
L 191.110069 110.510455 
L 194.381357 114.010509 
L 197.652645 117.620054 
L 201.196541 121.33546 
L 204.467829 125.152491 
L 207.739118 129.068124 
L 211.010406 133.076915 
L 214.281694 137.175233 
L 217.552983 141.358845 
L 220.824271 145.623516 
L 224.095559 149.964406 
L 227.366847 154.377282 
L 230.638136 158.856698 
L 233.909424 163.399026 
L 237.180712 167.998822 
L 240.452001 172.651245 
L 243.723289 177.351456 
L 246.994577 182.095222 
L 250.265865 186.876493 
L 253.537154 191.691034 
L 256.808442 196.532796 
L 260.07973 201.39815 
L 263.351019 206.280442 
L 266.622307 211.175437 
L 269.893595 216.078296 
L 273.164883 220.98297 
L 276.436172 225.884619 
L 279.70746 230.778405 
L 282.978748 235.658882 
L 286.250037 240.521211 
L 289.521325 245.359949 
L 292.792613 250.169651 
L 296.063902 254.946082 
L 299.33519 259.683799 
L 302.606478 264.377961 
L 305.877766 269.02373 
L 309.149055 273.615661 
L 312.420343 278.149521 
L 315.691631 282.619863 
L 318.96292 287.02306 
L 322.234208 291.353062 
L 325.505496 295.606844 
L 328.776784 299.778963 
L 332.048073 303.865183 
L 335.319361 307.86127 
L 338.590649 311.763171 
L 341.861938 315.566592 
L 345.133226 319.26754 
L 348.404514 322.862204 
L 351.675802 326.346773 
L 354.947091 329.717496 
L 358.218379 332.970986 
L 361.489667 336.103734 
L 364.760956 339.112414 
L 368.032244 341.99388 
L 371.303532 344.745167 
L 374.57482 347.363312 
L 377.846109 349.845593 
L 381.117397 352.189407 
L 384.388685 354.392215 
L 387.659974 356.451779 
L 390.931262 358.365921 
L 394.20255 360.132583 
L 397.746446 361.750013 
L 401.017734 363.216333 
L 404.289022 364.530179 
L 407.560311 365.690066 
L 410.831599 366.694805 
L 414.102887 367.543329 
L 417.374176 368.234756 
L 420.645464 368.768348 
L 423.916752 369.143681 
L 427.18804 369.36 
" clip-path="url(#p0d8d4871ff)" style="fill: none; stroke: #0000ff; stroke-opacity: 0.9; stroke-width: 2.5; stroke-linecap: round"/>
   </g>
   <g id="patch_3">
    <path d="M 90 384.48 
L 90 51.84 
" style="fill: none; stroke: #cccccc; stroke-linejoin: miter; stroke-linecap: square"/>
   </g>
   <g id="patch_4">
    <path d="M 648 384.48 
L 648 51.84 
" style="fill: none; stroke: #cccccc; stroke-linejoin: miter; stroke-linecap: square"/>
   </g>
   <g id="patch_5">
    <path d="M 90 384.48 
L 648 384.48 
" style="fill: none; stroke: #cccccc; stroke-linejoin: miter; stroke-linecap: square"/>
   </g>
   <g id="patch_6">
    <path d="M 90 51.84 
L 648 51.84 
" style="fill: none; stroke: #cccccc; stroke-linejoin: miter; stroke-linecap: square"/>
   </g>
   <g id="text_30">
    <!-- Learning Rate over Epochs -->
    <g transform="translate(259.939687 41.84) scale(0.18 -0.18)">
     <defs>
      <path id="LiberationSans-76" d="M 1916 0 
L 1250 0 
L 22 3381 
L 622 3381 
L 1366 1181 
Q 1406 1056 1581 441 
L 1691 806 
L 1813 1175 
L 2581 3381 
L 3178 3381 
L 1916 0 
z
" transform="scale(0.015625)"/>
     </defs>
     <use xlink:href="#LiberationSans-4c"/>
     <use xlink:href="#LiberationSans-65" x="55.615234"/>
     <use xlink:href="#LiberationSans-61" x="111.230469"/>
     <use xlink:href="#LiberationSans-72" x="166.845703"/>
     <use xlink:href="#LiberationSans-6e" x="200.146484"/>
     <use xlink:href="#LiberationSans-69" x="255.761719"/>
     <use xlink:href="#LiberationSans-6e" x="277.978516"/>
     <use xlink:href="#LiberationSans-67" x="333.59375"/>
     <use xlink:href="#LiberationSans-20" x="389.208984"/>
     <use xlink:href="#LiberationSans-52" x="416.992188"/>
     <use xlink:href="#LiberationSans-61" x="489.208984"/>
     <use xlink:href="#LiberationSans-74" x="544.824219"/>
     <use xlink:href="#LiberationSans-65" x="572.607422"/>
     <use xlink:href="#LiberationSans-20" x="628.222656"/>
     <use xlink:href="#LiberationSans-6f" x="656.005859"/>
     <use xlink:href="#LiberationSans-76" x="711.621094"/>
     <use xlink:href="#LiberationSans-65" x="761.621094"/>
     <use xlink:href="#LiberationSans-72" x="817.236328"/>
     <use xlink:href="#LiberationSans-20" x="850.537109"/>
     <use xlink:href="#LiberationSans-45" x="878.320312"/>
     <use xlink:href="#LiberationSans-70" x="945.019531"/>
     <use xlink:href="#LiberationSans-6f" x="1000.634766"/>
     <use xlink:href="#LiberationSans-63" x="1056.25"/>
     <use xlink:href="#LiberationSans-68" x="1106.25"/>
     <use xlink:href="#LiberationSans-73" x="1161.865234"/>
    </g>
   </g>
   <g id="legend_1">
    <g id="line2d_56">
     <path d="M 508.255938 69.685625 
L 522.255938 69.685625 
L 536.255938 69.685625 
" style="fill: none; stroke: #0000ff; stroke-opacity: 0.9; stroke-width: 2.5; stroke-linecap: round"/>
    </g>
    <g id="text_31">
     <!-- Learning Rate -->
     <g style="fill: #262626" transform="translate(547.455938 74.585625) scale(0.14 -0.14)">
      <use xlink:href="#LiberationSans-4c"/>
      <use xlink:href="#LiberationSans-65" x="55.615234"/>
      <use xlink:href="#LiberationSans-61" x="111.230469"/>
      <use xlink:href="#LiberationSans-72" x="166.845703"/>
      <use xlink:href="#LiberationSans-6e" x="200.146484"/>
      <use xlink:href="#LiberationSans-69" x="255.761719"/>
      <use xlink:href="#LiberationSans-6e" x="277.978516"/>
      <use xlink:href="#LiberationSans-67" x="333.59375"/>
      <use xlink:href="#LiberationSans-20" x="389.208984"/>
      <use xlink:href="#LiberationSans-52" x="416.992188"/>
      <use xlink:href="#LiberationSans-61" x="489.208984"/>
      <use xlink:href="#LiberationSans-74" x="544.824219"/>
      <use xlink:href="#LiberationSans-65" x="572.607422"/>
     </g>
    </g>
   </g>
  </g>
 </g>
 <defs>
  <clipPath id="p0d8d4871ff">
   <rect x="90" y="51.84" width="558" height="332.64"/>
  </clipPath>
 </defs>
</svg>
